<svg width="24" height="22" viewBox="0 0 24 22" fill="none" xmlns="http://www.w3.org/2000/svg">
<path d="M3.50022 18.5402L3.855 18.1854L3.49899 17.8319C1.65475 16.0004 0.5 13.4727 0.5 10.6667C0.5 6.15593 3.43507 2.34561 7.5 1.0136V2.78725C4.375 4.03814 2.16667 7.09392 2.16667 10.6667C2.16667 13.0205 3.13165 15.1313 4.65815 16.6719L5.0117 17.0287L5.36689 16.6736L7.5 14.5404V20.8333H1.20711L3.50022 18.5402ZM23.5 10.6667C23.5 15.1774 20.5649 18.9877 16.5 20.3197V18.5461C19.625 17.2952 21.8333 14.2394 21.8333 10.6667C21.8333 8.31287 20.8683 6.20205 19.3418 4.66141L18.9883 4.30459L18.6331 4.65978L16.5 6.79289V0.5H22.7929L20.4998 2.79311L20.145 3.14789L20.501 3.50144C22.3452 5.33297 23.5 7.86067 23.5 10.6667ZM12.8333 15.1667V16.8333H11.1667V15.1667H12.8333ZM12.8333 4.5V11.5H11.1667V4.5H12.8333Z" stroke="#828282"/>
</svg>
